#N canvas 350 23 1060 710 12;
#X obj 26 65 tgl 15 0 empty empty empty 17 7 0 10 -262144 -1 -1 0 1
;
#X obj 26 201 hradio 15 1 0 3 empty empty empty 0 -8 0 10 -232576 -4160
-1 0;
#X obj 93 457 cyclone/out~;
#X obj 26 125 i;
#X obj 26 94 metro 120;
#X text 146 200 [Hradio] helps visualise the 4 steps;
#X obj 93 379 osc~;
#X msg 22 289 174.62;
#X msg 82 288 196;
#X obj 208 329 vline~;
#X obj 93 413 *~;
#X obj 93 349 * 1, f 6;
#X floatatom 158 376 5 0 0 0 - - -;
#X msg 208 282 1 125 \, 0.7 5 200 \, 0 100 100;
#X text 199 376 result;
#X obj 26 228 select 0 1 2;
#X text 145 221 [select] with 3 argument allows to use each "step"
individually to create an arpeggio, f 44;
#X obj 26 174 mod 3;
#X text 148 146 the counter with modulo 3 bounds the [metro] to 0-1-2
only, f 34;
#X text 10 11 Arpeggio;
#X msg 430 148 2;
#X msg 475 149 0.5;
#X floatatom 429 78 5 0 0 0 - - -;
#X obj 429 47 key;
#X msg 128 288 261.63;
#X text 501 27 W: up 119 S: down 115 A: left 97 D: right 100;
#X text 490 8 UP AND DOWN;
#X obj 449 107 sel 119 115 97 100;
#X msg 525 149 2;
#X msg 570 150 0.5;
#X obj 636 58 tgl 15 0 empty empty empty 17 7 0 10 -262144 -1 -1 0
1;
#X obj 638 211 hradio 15 1 0 3 empty empty empty 0 -8 0 10 -232576
-4160 -1 2;
#X obj 705 467 cyclone/out~;
#X obj 638 135 i;
#X obj 637 94 metro 120;
#X text 758 210 [Hradio] helps visualise the 4 steps;
#X obj 705 389 osc~;
#X msg 634 299 174.62;
#X msg 694 298 196;
#X obj 820 339 vline~;
#X obj 705 423 *~;
#X obj 705 359 * 1, f 6;
#X floatatom 770 386 5 0 0 0 - - -;
#X msg 820 292 1 125 \, 0.7 5 200 \, 0 100 100;
#X text 811 386 result;
#X obj 638 238 select 0 1 2;
#X text 757 231 [select] with 3 argument allows to use each "step"
individually to create an arpeggio, f 44;
#X obj 638 184 mod 3;
#X text 760 156 the counter with modulo 3 bounds the [metro] to 0-1-2
only, f 34;
#X msg 740 298 261.63;
#X obj 686 136 - 1;
#X text 758 82 comment;
#X obj 74 126 + 1;
#X text 47 646 comment;
#X connect 0 0 4 0;
#X connect 1 0 15 0;
#X connect 3 0 17 0;
#X connect 3 0 52 0;
#X connect 4 0 3 0;
#X connect 6 0 10 0;
#X connect 7 0 11 0;
#X connect 8 0 11 0;
#X connect 9 0 10 1;
#X connect 10 0 2 0;
#X connect 10 0 2 1;
#X connect 11 0 6 0;
#X connect 11 0 12 0;
#X connect 13 0 9 0;
#X connect 15 0 13 0;
#X connect 15 0 7 0;
#X connect 15 1 13 0;
#X connect 15 1 8 0;
#X connect 15 2 13 0;
#X connect 15 2 24 0;
#X connect 15 3 13 0;
#X connect 17 0 1 0;
#X connect 20 0 11 1;
#X connect 21 0 11 1;
#X connect 22 0 27 0;
#X connect 23 0 22 0;
#X connect 24 0 11 0;
#X connect 27 0 20 0;
#X connect 27 1 21 0;
#X connect 27 2 28 0;
#X connect 27 3 29 0;
#X connect 28 0 41 1;
#X connect 29 0 41 1;
#X connect 30 0 34 0;
#X connect 31 0 45 0;
#X connect 33 0 47 0;
#X connect 33 0 50 0;
#X connect 34 0 33 0;
#X connect 36 0 40 0;
#X connect 37 0 41 0;
#X connect 38 0 41 0;
#X connect 39 0 40 1;
#X connect 40 0 32 0;
#X connect 40 0 32 1;
#X connect 41 0 36 0;
#X connect 41 0 42 0;
#X connect 43 0 39 0;
#X connect 45 0 43 0;
#X connect 45 0 37 0;
#X connect 45 1 43 0;
#X connect 45 1 38 0;
#X connect 45 2 43 0;
#X connect 45 2 49 0;
#X connect 45 3 43 0;
#X connect 47 0 31 0;
#X connect 49 0 41 0;
#X connect 50 0 33 1;
#X connect 52 0 3 1;
