#N canvas 2306 74 1408 897 12;
#X obj 257 93 tgl 15 0 empty empty empty 17 7 0 10 -262144 -1 -1 0
1;
#X obj 406 191 + 1;
#X obj 197 320 hradio 15 1 0 20 empty empty empty 0 -8 0 10 -232576
-4160 -1 5;
#X obj 722 736 cyclone/out~;
#X obj 358 190 i;
#X obj 395 692 osc~;
#X obj 544 734 vline~;
#X obj 395 726 *~;
#X obj 395 662 * 1, f 6;
#X floatatom 304 695 5 0 0 0 - - -;
#X msg 281 395 1 125 \, 0.7 5 200 \, 0 100 100;
#X text 1706 982 result;
#X obj 1116 461 bng 15 250 50 0 empty empty empty 17 7 0 10 -262144
-1 -1;
#X obj 1146 458 bng 15 250 50 0 empty empty empty 17 7 0 10 -262144
-1 -1;
#X text 211 91 START;
#X obj 99 519 mtof;
#X msg 99 483 57;
#X obj 102 439 bng 15 250 50 0 empty empty empty 17 7 0 10 -262144
-1 -1;
#X floatatom 99 562 5 0 0 0 - - -;
#X obj 362 255 mod 3;
#X obj 144 520 mtof;
#X obj 139 441 bng 15 250 50 0 empty empty empty 17 7 0 10 -262144
-1 -1;
#X obj 189 519 mtof;
#X obj 190 443 bng 15 250 50 0 empty empty empty 17 7 0 10 -262144
-1 -1;
#X msg 142 483 60;
#X msg 193 485 64;
#X floatatom 138 560 5 0 0 0 - - -;
#X floatatom 191 556 5 0 0 0 - - -;
#X text 274 718 frequency I;
#X floatatom 279 249 5 0 0 0 - - -;
#X msg 1113 493 2;
#X msg 1161 493 0.5;
#X obj 235 515 mtof;
#X obj 236 439 bng 15 250 50 0 empty empty empty 17 7 0 10 -262144
-1 -1;
#X floatatom 248 549 5 0 0 0 - - -;
#X obj 279 510 mtof;
#X obj 280 434 bng 15 250 50 0 empty empty empty 17 7 0 10 -262144
-1 -1;
#X floatatom 296 546 5 0 0 0 - - -;
#X obj 332 510 mtof;
#X obj 333 434 bng 15 250 50 0 empty empty empty 17 7 0 10 -262144
-1 -1;
#X floatatom 341 544 5 0 0 0 - - -;
#X obj 380 510 mtof;
#X obj 381 434 bng 15 250 50 0 empty empty empty 17 7 0 10 -262144
-1 -1;
#X floatatom 394 543 5 0 0 0 - - -;
#X obj 426 510 mtof;
#X obj 427 434 bng 15 250 50 0 empty empty empty 17 7 0 10 -262144
-1 -1;
#X floatatom 438 541 5 0 0 0 - - -;
#X msg 239 481 67;
#X msg 283 476 70;
#X msg 337 475 74;
#X msg 384 476 77;
#X msg 430 475 80;
#X obj 486 237 nbx 5 14 -1e+037 1e+037 0 0 empty empty empty 0 -8 0
10 -262144 -1 -1 9 256;
#X obj 475 508 mtof;
#X obj 476 432 bng 15 250 50 0 empty empty empty 17 7 0 10 -262144
-1 -1;
#X floatatom 484 542 5 0 0 0 - - -;
#X obj 526 508 mtof;
#X obj 527 432 bng 15 250 50 0 empty empty empty 17 7 0 10 -262144
-1 -1;
#X floatatom 540 541 5 0 0 0 - - -;
#X obj 574 508 mtof;
#X obj 575 432 bng 15 250 50 0 empty empty empty 17 7 0 10 -262144
-1 -1;
#X floatatom 586 539 5 0 0 0 - - -;
#X msg 480 473 84;
#X msg 530 474 87;
#X msg 578 473 90;
#X obj 615 505 mtof;
#X obj 616 429 bng 15 250 50 0 empty empty empty 17 7 0 10 -262144
-1 -1;
#X floatatom 624 539 5 0 0 0 - - -;
#X obj 661 505 mtof;
#X obj 662 429 bng 15 250 50 0 empty empty empty 17 7 0 10 -262144
-1 -1;
#X floatatom 675 538 5 0 0 0 - - -;
#X obj 706 505 mtof;
#X obj 707 429 bng 15 250 50 0 empty empty empty 17 7 0 10 -262144
-1 -1;
#X floatatom 718 536 5 0 0 0 - - -;
#X obj 750 503 mtof;
#X obj 751 427 bng 15 250 50 0 empty empty empty 17 7 0 10 -262144
-1 -1;
#X floatatom 759 537 5 0 0 0 - - -;
#X obj 803 503 mtof;
#X obj 804 427 bng 15 250 50 0 empty empty empty 17 7 0 10 -262144
-1 -1;
#X floatatom 804 537 5 0 0 0 - - -;
#X obj 861 503 mtof;
#X obj 862 427 bng 15 250 50 0 empty empty empty 17 7 0 10 -262144
-1 -1;
#X floatatom 865 537 5 0 0 0 - - -;
#X obj 204 350 select 0 1 2 3 4 5 6 7 8 9 10 11 12 13 14 15 16;
#X msg 616 467 94;
#X msg 665 471 97;
#X msg 710 470 100;
#X msg 755 468 104;
#X msg 807 469 107;
#X msg 865 468 110;
#X text 1172 461 up and down;
#X text 632 797 Please turn DSP and volume on.;
#X text 485 215 snake size I max 17;
#N canvas 2697 323 595 561 start 1;
#X obj 106 416 outlet;
#X obj 99 96 oscparse;
#X obj 99 154 list trim;
#X obj 99 53 iemnet/udpreceive 11000;
#X text 165 97 parse OSC packets into Pd messages;
#X text 175 153 convert list to message \, using first item as selector
;
#X obj 214 196 print trim;
#X obj 213 128 print oscparse;
#X floatatom 34 316 5 0 0 0 - - -;
#X obj 99 207 route test;
#X obj 98 261 route start;
#X obj 214 295 print start;
#X obj 215 245 print test;
#X obj 117 358 unpack f;
#X obj 371 286 route analog;
#X obj 422 342 print analog;
#X obj 341 445 outlet;
#X floatatom 302 355 5 0 0 0 - - -;
#X obj 412 226 route notes;
#X obj 470 264 outlet;
#X obj 432 190 route stop;
#X obj 525 221 outlet;
#X connect 1 0 2 0;
#X connect 1 0 7 0;
#X connect 2 0 6 0;
#X connect 2 0 9 0;
#X connect 3 0 1 0;
#X connect 9 0 10 0;
#X connect 9 0 12 0;
#X connect 9 0 14 0;
#X connect 9 0 18 0;
#X connect 9 0 20 0;
#X connect 10 0 8 0;
#X connect 10 0 11 0;
#X connect 10 0 13 0;
#X connect 13 0 0 0;
#X connect 14 0 15 0;
#X connect 14 0 16 0;
#X connect 14 0 17 0;
#X connect 18 0 19 0;
#X connect 20 0 21 0;
#X restore 320 -2 pd start;
#X floatatom 230 49 5 0 0 0 - - -;
#X obj 939 62 tgl 15 0 empty empty empty 17 7 0 10 -262144 -1 -1 1
1;
#X obj 911 174 i;
#X text 923 35 START;
#X floatatom 858 227 5 0 0 0 - - -;
#X obj 991 176 - 1;
#X obj 315 132 metro 300;
#X obj 897 116 metro 300;
#X msg 1096 172 0;
#X msg 171 170 0;
#X obj 681 255 mod -3;
#X floatatom 294 47 5 0 0 0 - - -;
#X obj 71 43 select 0;
#X obj 404 27 select 1;
#X obj 729 9 select 4;
#X obj 1103 411 select 2 3;
#X floatatom 576 81 5 0 0 0 - - -;
#X obj 648 102 int;
#X obj 688 130 change;
#X floatatom 620 134 5 0 0 0 - - -;
#X floatatom 649 155 5 0 0 0 - - -;
#X obj 637 66 / 2;
#X text 796 464;
#X msg 58 610 0;
#X obj 22 404 bng 15 250 50 0 empty empty empty 17 7 0 10 -262144 -1
-1;
#X obj 396 794 dac~;
#X msg 41 697 1;
#X obj 47 303 select 0 1;
#X obj 55 404 bng 15 250 50 0 empty empty empty 17 7 0 10 -262144 -1
-1;
#X connect 0 0 100 0;
#X connect 1 0 4 1;
#X connect 2 0 83 0;
#X connect 4 0 1 0;
#X connect 4 0 19 0;
#X connect 4 0 29 0;
#X connect 5 0 7 0;
#X connect 6 0 7 1;
#X connect 7 0 119 0;
#X connect 7 0 119 1;
#X connect 8 0 5 0;
#X connect 8 0 9 0;
#X connect 10 0 6 0;
#X connect 12 0 30 0;
#X connect 13 0 31 0;
#X connect 15 0 8 0;
#X connect 15 0 18 0;
#X connect 16 0 15 0;
#X connect 17 0 16 0;
#X connect 19 0 2 0;
#X connect 20 0 8 0;
#X connect 20 0 26 0;
#X connect 21 0 24 0;
#X connect 22 0 8 0;
#X connect 22 0 27 0;
#X connect 23 0 25 0;
#X connect 24 0 20 0;
#X connect 25 0 22 0;
#X connect 30 0 8 1;
#X connect 31 0 8 1;
#X connect 32 0 34 0;
#X connect 32 0 8 0;
#X connect 33 0 47 0;
#X connect 35 0 37 0;
#X connect 35 0 8 0;
#X connect 36 0 48 0;
#X connect 38 0 40 0;
#X connect 38 0 8 0;
#X connect 39 0 49 0;
#X connect 41 0 43 0;
#X connect 41 0 8 0;
#X connect 42 0 50 0;
#X connect 44 0 46 0;
#X connect 44 0 8 0;
#X connect 45 0 51 0;
#X connect 47 0 32 0;
#X connect 48 0 35 0;
#X connect 49 0 38 0;
#X connect 50 0 41 0;
#X connect 51 0 44 0;
#X connect 52 0 19 1;
#X connect 52 0 104 1;
#X connect 53 0 55 0;
#X connect 53 0 8 0;
#X connect 54 0 62 0;
#X connect 56 0 58 0;
#X connect 56 0 8 0;
#X connect 57 0 63 0;
#X connect 59 0 61 0;
#X connect 59 0 8 0;
#X connect 60 0 64 0;
#X connect 62 0 53 0;
#X connect 63 0 56 0;
#X connect 64 0 59 0;
#X connect 65 0 67 0;
#X connect 65 0 8 0;
#X connect 66 0 84 0;
#X connect 68 0 70 0;
#X connect 68 0 8 0;
#X connect 69 0 85 0;
#X connect 71 0 73 0;
#X connect 71 0 8 0;
#X connect 72 0 86 0;
#X connect 74 0 76 0;
#X connect 74 0 8 0;
#X connect 75 0 87 0;
#X connect 77 0 79 0;
#X connect 77 0 8 0;
#X connect 78 0 88 0;
#X connect 80 0 82 0;
#X connect 80 0 8 0;
#X connect 81 0 89 0;
#X connect 83 0 10 0;
#X connect 83 0 17 0;
#X connect 83 1 10 0;
#X connect 83 1 21 0;
#X connect 83 2 10 0;
#X connect 83 2 23 0;
#X connect 83 3 10 0;
#X connect 83 3 33 0;
#X connect 83 4 36 0;
#X connect 83 4 10 0;
#X connect 83 5 39 0;
#X connect 83 5 10 0;
#X connect 83 6 42 0;
#X connect 83 6 10 0;
#X connect 83 7 45 0;
#X connect 83 7 10 0;
#X connect 83 8 54 0;
#X connect 83 8 10 0;
#X connect 83 9 57 0;
#X connect 83 9 10 0;
#X connect 83 10 60 0;
#X connect 83 10 10 0;
#X connect 83 11 66 0;
#X connect 83 11 10 0;
#X connect 83 12 69 0;
#X connect 83 12 10 0;
#X connect 83 13 72 0;
#X connect 83 13 10 0;
#X connect 83 14 75 0;
#X connect 83 14 10 0;
#X connect 83 15 78 0;
#X connect 83 15 10 0;
#X connect 83 16 81 0;
#X connect 83 16 10 0;
#X connect 83 17 10 0;
#X connect 84 0 65 0;
#X connect 85 0 68 0;
#X connect 86 0 71 0;
#X connect 87 0 74 0;
#X connect 88 0 77 0;
#X connect 89 0 80 0;
#X connect 93 0 94 0;
#X connect 93 0 106 0;
#X connect 93 0 107 0;
#X connect 93 0 108 0;
#X connect 93 0 109 0;
#X connect 93 1 105 0;
#X connect 93 1 115 0;
#X connect 93 2 52 0;
#X connect 93 3 121 0;
#X connect 95 0 101 0;
#X connect 96 0 98 0;
#X connect 96 0 99 0;
#X connect 96 0 104 0;
#X connect 99 0 96 1;
#X connect 100 0 4 0;
#X connect 101 0 96 0;
#X connect 102 0 96 0;
#X connect 103 0 4 0;
#X connect 104 0 2 0;
#X connect 106 0 0 0;
#X connect 107 0 0 0;
#X connect 107 0 95 0;
#X connect 108 0 95 0;
#X connect 108 0 0 0;
#X connect 109 0 12 0;
#X connect 109 1 13 0;
#X connect 111 0 112 0;
#X connect 111 0 113 0;
#X connect 112 0 114 0;
#X connect 112 0 100 1;
#X connect 112 0 101 1;
#X connect 115 0 110 0;
#X connect 115 0 111 0;
#X connect 117 0 8 1;
#X connect 118 0 117 0;
#X connect 120 0 8 1;
#X connect 121 0 118 0;
#X connect 121 1 122 0;
#X connect 122 0 120 0;
